<?xml version="1.0" standalone="no"?>
<!DOCTYPE svg PUBLIC "-//W3C//DTD SVG 20010904//EN"
 "http://www.w3.org/TR/2001/REC-SVG-20010904/DTD/svg10.dtd">
<svg version="1.0" xmlns="http://www.w3.org/2000/svg"
 width="349.000000pt" height="349.000000pt" viewBox="0 0 349.000000 349.000000"
 preserveAspectRatio="xMidYMid meet">
<metadata>
Created by potrace 1.11, written by Peter Selinger 2001-2013
</metadata>
<g transform="translate(0.000000,349.000000) scale(0.100000,-0.100000)"
fill="#000000" stroke="none">
<path d="M2631 3105 c3 -22 -2 -25 -22 -14 -12 6 -19 7 -15 1 3 -5 -13 -12
-36 -16 -23 -4 -61 -15 -85 -26 -43 -19 -53 -16 -30 10 10 12 9 12 -5 1 -10
-7 -18 -21 -19 -30 0 -11 -2 -12 -6 -3 -4 10 -9 7 -20 -8 -9 -12 -21 -19 -30
-16 -8 3 -11 2 -8 -3 3 -6 -8 -18 -25 -27 -16 -10 -30 -22 -30 -26 0 -4 -5 -8
-11 -8 -5 0 -7 6 -3 13 4 7 3 9 -2 4 -5 -5 -10 -13 -10 -18 -1 -5 -2 -14 -3
-20 0 -5 -5 -8 -10 -4 -5 3 -13 -4 -16 -16 -4 -13 -12 -18 -21 -15 -8 3 -13 2
-9 -3 3 -5 -1 -16 -9 -24 -8 -8 -12 -18 -8 -22 4 -5 0 -6 -9 -2 -13 4 -16 1
-11 -15 3 -14 1 -19 -6 -14 -6 3 -13 2 -17 -4 -3 -5 0 -10 7 -10 10 0 10 -2 0
-9 -8 -4 -13 -10 -13 -12 3 -19 -15 -49 -28 -49 -14 0 -14 -2 -1 -10 14 -9 7
-15 -14 -11 -5 1 -4 -5 4 -13 7 -9 8 -16 2 -16 -5 0 -8 -9 -5 -20 3 -11 0 -20
-6 -20 -6 0 -8 -7 -4 -17 5 -12 3 -14 -8 -8 -11 7 -12 6 -2 -6 10 -12 9 -21
-2 -42 -8 -15 -9 -25 -3 -21 6 4 9 1 6 -7 -3 -8 -10 -13 -16 -12 -6 2 -9 -4
-6 -12 4 -8 9 -13 13 -11 3 2 6 -9 6 -24 1 -23 -2 -27 -12 -18 -10 8 -12 7 -7
-6 3 -9 9 -16 13 -16 4 0 7 -22 7 -49 -1 -27 2 -47 7 -44 4 2 7 -3 7 -11 0
-10 -6 -14 -17 -10 -10 2 -8 -1 5 -7 12 -7 22 -16 22 -21 0 -5 -6 -6 -12 -2
-7 4 -4 -2 6 -14 14 -16 15 -22 6 -22 -10 0 -9 -4 3 -13 10 -6 20 -25 23 -41
5 -27 4 -28 -13 -15 -16 12 -17 12 -6 -2 7 -9 10 -18 7 -22 -3 -3 4 -3 17 0
15 4 20 3 15 -5 -4 -7 -2 -12 3 -12 6 0 11 -5 11 -12 0 -6 -9 -3 -20 7 -11 10
-20 14 -20 9 0 -5 -6 -2 -13 6 -7 8 -19 15 -27 15 -9 0 -14 8 -13 19 1 12 -2
15 -9 8 -11 -11 -57 4 -70 23 -4 5 -10 6 -14 3 -3 -4 -19 -1 -34 7 -15 8 -30
11 -34 8 -3 -4 -6 2 -6 13 0 15 -2 16 -9 5 -9 -14 -40 -10 -106 14 -16 5 -17
5 -5 -4 8 -6 11 -11 5 -11 -17 0 -48 -62 -34 -70 8 -5 4 -15 -12 -31 -12 -12
-16 -20 -7 -17 9 4 15 0 15 -8 0 -8 -5 -14 -10 -14 -5 0 -3 -8 4 -17 12 -15
12 -16 -6 -10 -20 7 -20 7 -1 -8 12 -9 15 -15 7 -15 -8 0 -11 -7 -8 -19 5 -21
-6 -22 -40 -3 -12 7 -21 18 -19 25 1 6 1 9 -1 5 -3 -5 -12 -8 -20 -8 -13 0
-13 3 -3 15 7 9 10 18 6 22 -3 3 -6 1 -6 -5 0 -7 -6 -12 -12 -12 -21 0 -112
50 -121 66 -7 12 -12 13 -23 3 -11 -9 -14 -7 -15 12 0 22 -1 22 -8 5 -5 -14
-10 -16 -15 -8 -4 7 -4 18 0 25 6 9 5 9 -7 0 -15 -12 -59 -7 -59 7 0 5 -8 6
-19 3 -10 -3 -22 1 -27 8 -5 9 -2 10 12 5 15 -6 16 -5 7 5 -10 10 -15 9 -28
-1 -11 -9 -15 -9 -15 -1 0 8 -6 7 -16 -4 -13 -13 -19 -13 -33 -3 -13 10 -14
10 -3 -2 16 -19 16 -43 -1 -37 -8 3 -14 -1 -14 -9 0 -7 5 -10 10 -7 7 4 7 -1
2 -13 -4 -10 -8 -36 -8 -57 -1 -35 -3 -37 -15 -20 -14 17 -14 17 -7 -2 4 -11
8 -28 9 -37 0 -10 5 -18 11 -19 5 -1 -1 -5 -15 -9 -14 -5 -18 -8 -9 -9 9 -1
19 -12 21 -25 5 -26 -12 -30 -34 -8 -7 7 -16 12 -21 12 -5 0 -15 7 -24 15 -8
8 -19 13 -24 10 -5 -4 -9 -1 -9 4 0 6 -9 11 -20 11 -12 0 -20 7 -20 18 0 14
-2 15 -10 2 -8 -13 -10 -12 -10 3 0 9 -5 17 -11 17 -5 0 -7 -4 -4 -10 3 -5 1
-10 -4 -10 -6 0 -11 4 -11 8 0 5 -7 9 -15 10 -8 1 -22 3 -30 4 -8 1 -15 8 -15
17 0 13 -2 13 -9 2 -6 -9 -11 -10 -15 -2 -4 6 -12 9 -17 6 -5 -4 -9 -1 -9 5 0
6 -4 9 -9 6 -5 -3 -23 -3 -41 0 -22 5 -28 9 -18 15 9 6 9 9 1 9 -6 0 -15 -4
-18 -10 -4 -6 -18 -4 -37 6 -20 10 -28 11 -22 3 5 -9 2 -10 -10 -6 -10 4 -31
7 -47 7 -18 0 -28 4 -24 10 3 6 1 10 -4 10 -6 0 -11 -4 -11 -10 0 -15 -38 -12
-43 3 -3 9 -7 9 -19 -1 -13 -10 -17 -10 -20 0 -4 10 -8 10 -21 -1 -14 -11 -17
-11 -17 0 0 12 -2 12 -9 0 -5 -8 -16 -11 -26 -7 -23 8 -82 -53 -63 -65 7 -5 8
-9 2 -9 -5 0 -9 -14 -8 -31 2 -24 -1 -29 -14 -25 -13 5 -12 2 2 -9 14 -11 16
-15 5 -15 -8 0 -10 -3 -4 -8 6 -4 10 -22 11 -40 0 -26 -3 -32 -15 -27 -14 4
-14 4 -1 -7 16 -13 26 -63 11 -54 -4 3 -8 -1 -8 -9 0 -8 4 -12 9 -9 4 3 9 0 9
-5 1 -6 2 -17 3 -23 1 -7 -5 -19 -14 -26 -13 -11 -13 -11 1 -6 21 7 36 -55 17
-68 -9 -5 -8 -8 5 -8 19 0 24 -30 5 -31 -7 0 -4 -4 7 -9 11 -5 14 -9 7 -9 -10
-1 -10 -5 2 -17 9 -8 16 -19 16 -24 0 -14 -18 -21 -25 -10 -4 6 -11 8 -16 5
-5 -4 -15 -3 -21 2 -7 4 -21 8 -30 9 -10 1 -25 2 -34 3 -8 0 -13 5 -10 9 3 5
-1 9 -9 9 -8 0 -12 -4 -9 -9 3 -4 0 -8 -5 -8 -6 0 -11 5 -11 11 0 8 -5 7 -16
-2 -13 -10 -17 -10 -25 2 -7 12 -9 12 -9 -1 -1 -12 -3 -11 -11 3 -5 9 -15 17
-22 17 -7 0 -6 -4 3 -10 17 -11 16 -12 -27 -14 -18 -1 -33 3 -33 8 0 6 -7 3
-14 -7 -9 -12 -16 -14 -21 -8 -3 6 -12 11 -18 11 -7 0 -6 -4 3 -11 12 -9 11
-10 -7 -6 -13 3 -23 1 -23 -5 0 -5 -6 -8 -12 -5 -7 2 -12 10 -10 16 1 7 -2 10
-7 6 -6 -3 -7 -13 -4 -23 6 -15 5 -15 -10 -3 -15 12 -17 12 -11 -4 5 -12 4
-16 -4 -11 -17 10 -27 -41 -12 -59 11 -13 10 -15 -6 -10 -10 4 -7 -1 9 -10 15
-8 27 -21 27 -27 0 -6 10 -19 22 -30 16 -13 19 -21 11 -26 -9 -5 -5 -12 10
-21 21 -13 21 -13 7 5 -8 10 0 6 18 -10 18 -17 32 -36 32 -43 0 -8 4 -12 9 -9
5 4 8 -5 6 -19 -2 -21 0 -23 13 -13 13 11 14 9 8 -12 -5 -18 -5 -21 3 -10 5 8
13 11 17 7 10 -10 -16 -38 -29 -30 -5 3 -7 1 -4 -4 8 -13 -27 -46 -38 -36 -4
5 -5 2 -1 -5 4 -7 2 -20 -5 -28 -7 -8 -8 -14 -2 -12 6 2 24 -10 40 -27 39 -40
149 -125 162 -125 5 0 13 -5 17 -12 5 -7 2 -8 -7 -3 -8 5 -11 4 -6 0 4 -5 18
-10 30 -12 12 -2 24 -8 25 -13 2 -6 10 -10 18 -10 8 0 14 -4 14 -10 0 -5 6 -7
14 -4 8 3 17 0 22 -7 5 -8 3 -10 -6 -4 -8 5 -11 4 -6 -3 3 -6 15 -9 26 -7 11
2 25 -2 32 -8 7 -7 19 -12 26 -13 6 -1 19 -2 27 -2 8 -1 15 -10 15 -19 0 -15
2 -16 10 -3 8 13 11 13 22 1 11 -11 11 -13 -1 -6 -10 5 -12 4 -7 -4 4 -6 13
-8 19 -4 14 9 48 5 63 -8 6 -5 14 -6 17 -3 3 4 14 3 24 -1 10 -5 21 -9 25 -9
3 -1 10 -5 15 -10 4 -5 3 -6 -3 -3 -11 6 -25 -13 -29 -38 -1 -5 10 -22 23 -37
16 -17 22 -33 18 -44 -5 -14 -4 -15 9 -4 12 10 15 10 15 -4 0 -10 5 -14 10
-11 6 3 10 1 10 -4 0 -6 7 -11 15 -11 8 0 15 -4 15 -9 0 -5 10 -11 23 -13 13
-2 22 -10 21 -20 -1 -11 4 -14 13 -11 9 4 20 -1 25 -10 5 -10 14 -17 21 -17 7
0 6 4 -3 10 -29 19 5 10 38 -10 18 -11 41 -20 52 -20 11 0 20 -6 20 -14 0 -8
7 -17 16 -20 14 -5 15 -4 5 8 -10 12 -8 13 11 8 13 -3 29 -12 36 -19 7 -7 19
-13 25 -13 7 0 6 5 -3 11 -12 9 -11 9 5 4 11 -4 26 -8 33 -8 6 0 12 -5 12 -11
0 -6 5 -4 10 4 5 8 10 10 10 5 0 -6 23 -11 52 -13 28 -1 55 -7 59 -13 5 -8 8
-8 11 1 3 10 12 8 34 -6 24 -15 27 -16 16 -2 -11 14 -11 16 3 14 9 -1 21 -9
26 -17 7 -11 9 -11 9 -1 0 7 4 10 10 7 5 -3 19 -1 31 6 19 10 21 9 15 -6 -5
-14 -4 -16 7 -7 8 7 17 9 20 5 4 -3 7 0 7 8 1 10 5 8 15 -5 8 -11 15 -15 15
-8 0 6 7 9 15 6 8 -4 15 -1 15 6 0 9 7 7 20 -5 20 -18 21 -18 14 1 -7 17 -6
17 9 5 9 -7 17 -9 17 -4 0 5 22 9 49 10 27 1 55 4 62 5 8 2 13 -3 11 -10 -1
-8 2 -11 8 -7 6 3 8 10 5 15 -3 4 2 10 10 14 10 3 15 -1 15 -11 0 -14 2 -14
16 3 8 10 12 12 8 4 -6 -12 -4 -13 7 -2 7 6 17 12 22 12 4 0 5 -6 1 -12 -4 -7
2 -5 14 5 11 11 26 16 32 12 6 -4 16 -2 23 4 16 13 50 8 55 -9 3 -8 0 -10 -8
-5 -9 5 -11 4 -6 -4 6 -9 11 -9 22 0 10 8 14 8 14 0 0 -6 9 -11 19 -11 11 0
27 -10 35 -22 9 -12 16 -17 16 -10 0 10 3 10 14 0 8 -7 11 -17 8 -23 -2 -5 0
-5 7 1 9 8 21 7 46 -4 24 -11 31 -19 22 -24 -7 -5 -1 -6 14 -3 16 4 42 -1 65
-11 55 -25 61 -27 44 -14 -12 9 -10 10 10 4 25 -7 46 -10 85 -13 17 -1 18 -3
5 -11 -8 -5 -12 -10 -7 -10 4 0 16 6 27 12 16 11 22 9 35 -7 15 -20 15 -20 8
0 -6 18 -5 19 12 5 10 -8 16 -10 12 -3 -6 9 4 11 33 10 22 -2 40 2 40 7 0 5 7
1 15 -10 15 -19 15 -19 8 1 -6 17 -5 18 9 7 14 -11 18 -10 27 5 8 14 10 15 11
3 0 -9 3 -11 8 -5 4 6 26 17 50 25 38 12 45 12 54 -1 8 -11 9 -11 4 3 -6 21
19 25 28 6 3 -7 4 -4 3 7 -1 12 3 19 11 17 6 -1 12 3 12 9 0 5 5 7 10 4 6 -4
7 -11 4 -17 -4 -7 -2 -8 5 -4 6 4 9 12 6 17 -4 5 1 9 9 9 9 0 16 4 16 9 0 5 7
12 16 15 10 4 13 2 8 -7 -6 -8 -3 -8 9 1 9 8 21 11 26 7 7 -4 8 1 4 11 -4 12
-3 15 5 10 7 -4 12 -2 12 4 0 6 4 9 9 6 5 -3 12 2 15 11 6 15 8 15 16 3 8 -13
10 -13 10 0 0 9 9 23 20 33 11 9 20 12 20 6 0 -8 4 -8 13 0 8 6 17 8 20 4 4
-3 7 -1 7 5 0 7 5 12 11 12 5 0 7 -6 3 -13 -6 -8 -3 -8 9 2 9 7 24 11 32 7 8
-3 15 -1 15 4 0 6 9 10 20 10 11 0 20 5 20 10 0 6 7 10 15 10 8 0 19 9 25 20
6 11 15 18 20 15 5 -3 12 0 16 6 4 8 3 9 -4 5 -7 -4 -12 -2 -12 3 0 6 4 11 9
11 5 0 13 9 16 20 3 11 13 20 20 20 9 0 12 6 8 15 -3 9 -2 15 3 14 21 -4 28 2
14 11 -11 7 -11 10 -2 10 7 0 10 5 7 10 -3 6 -1 10 5 10 6 0 8 5 5 10 -3 6 -1
10 5 10 6 0 8 5 5 10 -3 6 -2 10 4 10 6 0 8 7 5 15 -5 11 -1 14 12 9 18 -5 18
-5 1 6 -17 11 -17 13 -2 30 10 11 12 20 6 24 -6 4 -8 13 -5 21 4 8 10 13 14
10 10 -6 7 21 -3 31 -4 4 -1 14 6 22 9 13 9 14 0 8 -7 -4 -13 -3 -13 3 0 5 6
12 13 14 10 4 10 6 0 6 -7 1 -13 6 -13 12 0 5 4 8 8 5 5 -3 9 1 9 9 0 8 -4 12
-9 9 -4 -3 -8 7 -9 23 0 15 -2 36 -4 46 -2 13 1 17 11 13 9 -3 12 -1 9 4 -3 6
-13 10 -21 10 -16 0 -19 26 -4 35 6 3 10 12 9 18 0 9 -2 8 -6 -1 -2 -6 -9 -10
-13 -7 -5 3 -7 12 -3 20 3 8 0 15 -7 15 -10 0 -10 3 -1 14 9 11 9 16 0 22 -8
5 -10 3 -4 -7 5 -8 5 -11 0 -7 -15 14 -45 89 -32 82 7 -4 2 4 -10 18 -13 13
-23 32 -23 41 0 9 -6 17 -12 17 -9 0 -8 4 2 10 13 9 13 10 0 10 -8 0 -25 16
-37 35 -19 29 -20 33 -5 29 9 -4 3 3 -15 14 -17 11 -34 30 -38 41 -3 12 -11
21 -16 21 -6 0 -7 5 -4 10 3 6 -1 10 -9 10 -9 0 -16 5 -16 10 0 6 -12 23 -27
37 -19 17 -24 27 -15 30 6 3 12 9 12 15 0 7 -4 7 -12 0 -19 -16 -61 20 -45 38
9 9 9 11 0 6 -15 -8 -45 3 -37 15 3 5 -3 9 -13 9 -15 0 -16 2 -3 10 13 8 12
10 -4 10 -16 0 -44 25 -112 101 -8 9 -14 21 -14 27 0 6 -14 20 -30 32 -17 12
-28 25 -25 30 3 4 -4 10 -15 13 -11 3 -20 12 -20 21 0 9 -7 16 -15 16 -8 0
-15 4 -15 8 0 5 -13 23 -30 42 -16 18 -27 37 -24 41 3 5 -1 9 -8 9 -19 1 -81
87 -72 101 4 7 3 9 -3 6 -6 -4 -16 0 -23 8 -11 13 -10 15 6 10 13 -4 12 -2 -3
6 -13 7 -23 20 -23 31 0 10 -6 18 -12 18 -9 0 -8 4 2 10 13 8 12 10 -3 10 -10
0 -16 4 -12 9 3 5 1 12 -5 16 -7 4 -7 12 0 25 7 13 7 21 -2 26 -7 5 -8 2 -3
-7 6 -11 5 -12 -5 -2 -11 10 -10 16 6 35 11 14 13 18 3 10 -9 -6 -19 -9 -22
-5 -12 11 -8 43 6 43 8 0 7 4 -3 11 -12 8 -12 12 -2 16 9 3 10 9 2 17 -7 9 -1
23 24 52 30 34 35 37 50 25 14 -12 17 -12 14 -1 -4 17 22 20 41 6 11 -8 13 -8
8 1 -4 6 -3 14 3 18 5 3 10 1 10 -6 0 -9 3 -9 14 0 10 8 16 9 21 1 3 -6 11 -8
16 -5 10 7 89 -68 89 -83 0 -6 -6 -13 -12 -16 -7 -3 -4 -4 7 -1 13 3 25 -2 33
-16 8 -12 9 -18 3 -14 -6 3 -11 1 -11 -4 0 -6 6 -11 14 -11 7 0 16 -9 19 -20
3 -11 2 -18 -2 -15 -4 2 -8 -2 -8 -10 0 -8 4 -12 9 -9 4 3 9 0 9 -5 2 -14 6
-30 9 -33 1 -2 4 -16 6 -32 4 -24 2 -28 -13 -22 -17 6 -17 5 0 -8 12 -9 19
-28 20 -50 1 -20 5 -36 9 -36 4 0 8 -7 8 -16 0 -9 -5 -13 -12 -9 -7 4 -6 1 2
-7 9 -7 22 -28 29 -46 11 -26 11 -35 1 -48 -11 -12 -11 -15 1 -12 9 2 14 -5
13 -19 0 -13 3 -23 7 -23 4 0 6 -9 4 -20 -2 -11 0 -20 6 -20 5 0 9 -7 9 -16 0
-9 -5 -13 -12 -9 -7 3 -3 -2 10 -11 12 -9 22 -25 22 -35 0 -10 5 -21 10 -24 6
-3 10 -15 10 -26 0 -10 5 -19 11 -19 6 0 8 -10 5 -22 -3 -13 -3 -18 0 -11 10
21 55 -27 48 -51 -6 -20 -5 -20 8 -3 9 12 22 17 41 13 17 -3 26 0 24 7 -1 7 8
11 21 11 16 -1 20 2 12 11 -5 7 -6 24 -2 41 5 16 7 59 7 97 -1 55 1 67 14 67
13 1 13 3 -2 11 -18 10 -18 11 0 26 10 8 13 12 7 9 -7 -3 -14 1 -18 9 -3 10 1
15 12 16 14 0 14 2 -3 9 -11 5 -14 9 -7 9 7 1 10 6 6 13 -5 8 -2 9 10 5 14 -6
15 -3 6 14 -10 17 -8 19 12 16 13 -2 17 -2 11 0 -7 3 -13 6 -13 9 0 10 53 63
59 59 4 -2 8 6 8 17 1 12 8 25 15 29 7 5 9 9 4 9 -6 0 -1 7 10 16 10 8 13 13
7 9 -7 -3 -13 -1 -13 4 0 6 5 11 11 11 6 0 8 7 5 16 -5 12 -2 15 11 10 15 -6
16 -5 6 5 -7 7 -13 22 -13 34 0 16 2 17 10 5 12 -19 13 -8 0 24 -5 14 -5 28
-1 31 5 3 7 15 3 27 -4 16 -2 19 9 14 8 -4 6 -1 -4 7 -14 11 -15 16 -5 20 10
4 10 6 1 6 -7 1 -13 6 -13 12 0 5 4 8 8 5 5 -3 9 1 9 9 0 8 -5 11 -10 8 -6 -4
-8 0 -4 10 3 9 0 23 -8 31 -13 13 -13 15 3 19 16 4 16 5 0 6 -10 0 -18 6 -18
12 0 5 6 7 13 3 6 -4 4 2 -6 13 -9 11 -14 23 -10 26 3 4 2 7 -4 7 -5 0 -15 12
-22 26 -10 23 -9 26 4 21 8 -4 15 -4 15 -1 0 2 -12 9 -26 14 -14 6 -23 14 -20
19 5 8 -34 59 -97 124 -22 24 -26 32 -15 39 9 7 8 8 -6 4 -12 -4 -26 2 -43 21
-14 16 -22 21 -18 13 4 -9 1 -9 -8 3 -8 9 -17 17 -21 17 -3 0 -24 11 -47 25
-25 16 -37 30 -32 38 5 9 3 9 -9 -1 -12 -10 -17 -10 -27 1 -6 8 -7 18 -3 23 4
4 0 3 -9 -4 -13 -10 -23 -9 -50 2 -19 7 -40 11 -47 9 -7 -3 -10 1 -7 9 4 9 0
15 -9 15 -8 0 -13 -5 -9 -10 3 -5 -3 -7 -13 -5 -11 2 -18 10 -16 17 1 7 -2 10
-8 6 -6 -3 -7 -12 -3 -18 5 -9 3 -9 -8 -1 -13 9 -26 11 -46 4 -24 -7 -50 -3
-61 10 -7 8 -12 11 -11 5z"/>
<path d="M2668 3103 c6 -2 18 -2 25 0 6 3 1 5 -13 5 -14 0 -19 -2 -12 -5z"/>
<path d="M2520 3090 c0 -5 5 -10 11 -10 5 0 7 5 4 10 -3 6 -8 10 -11 10 -2 0
-4 -4 -4 -10z"/>
<path d="M3230 2810 c0 -5 5 -10 11 -10 5 0 7 5 4 10 -3 6 -8 10 -11 10 -2 0
-4 -4 -4 -10z"/>
<path d="M2130 2770 c0 -5 5 -10 11 -10 5 0 7 5 4 10 -3 6 -8 10 -11 10 -2 0
-4 -4 -4 -10z"/>
<path d="M2716 2592 c-3 -5 1 -9 9 -9 8 0 12 4 9 9 -3 4 -7 8 -9 8 -2 0 -6 -4
-9 -8z"/>
<path d="M2565 2580 c-3 -6 1 -7 9 -4 18 7 21 14 7 14 -6 0 -13 -4 -16 -10z"/>
<path d="M2520 2449 c0 -5 5 -7 10 -4 6 3 10 8 10 11 0 2 -4 4 -10 4 -5 0 -10
-5 -10 -11z"/>
<path d="M1860 2256 c7 -7 13 -7 20 0 6 6 3 10 -10 10 -13 0 -16 -4 -10 -10z"/>
<path d="M2640 2175 c0 -2 6 -8 13 -14 10 -8 14 -7 14 2 0 8 -6 14 -14 14 -7
0 -13 -1 -13 -2z"/>
<path d="M2910 2131 c0 -6 4 -13 10 -16 6 -3 7 1 4 9 -7 18 -14 21 -14 7z"/>
<path d="M2716 2087 c3 -10 9 -15 12 -12 3 3 0 11 -7 18 -10 9 -11 8 -5 -6z"/>
<path d="M1714 2059 c-3 -6 -2 -15 3 -20 5 -5 9 -1 9 11 0 23 -2 24 -12 9z"/>
<path d="M2920 1853 c0 -6 8 -17 18 -24 16 -13 16 -13 2 6 -8 11 -16 22 -17
24 -2 2 -3 0 -3 -6z"/>
<path d="M426 1588 c3 -5 10 -6 15 -3 13 9 11 12 -6 12 -8 0 -12 -4 -9 -9z"/>
<path d="M700 836 c0 -2 7 -7 16 -10 8 -3 12 -2 9 4 -6 10 -25 14 -25 6z"/>
<path d="M750 812 c0 -4 9 -8 19 -8 11 0 17 4 15 8 -7 10 -34 10 -34 0z"/>
<path d="M3305 690 c3 -5 8 -10 11 -10 2 0 4 5 4 10 0 6 -5 10 -11 10 -5 0 -7
-4 -4 -10z"/>
<path d="M918 623 c7 -3 16 -2 19 1 4 3 -2 6 -13 5 -11 0 -14 -3 -6 -6z"/>
<path d="M1930 510 c0 -5 5 -10 11 -10 5 0 7 5 4 10 -3 6 -8 10 -11 10 -2 0
-4 -4 -4 -10z"/>
<path d="M2715 390 c-3 -6 1 -7 9 -4 18 7 21 14 7 14 -6 0 -13 -4 -16 -10z"/>
</g>
</svg>
